<svg width="252" height="117" viewBox="0 0 252 117" fill="none" xmlns="http://www.w3.org/2000/svg">
<g filter="url(#filter0_di_1031_9)">
<path d="M15.5723 0.333984C20.8945 0.529297 27.5352 0.675781 35.4941 0.773438C43.4531 0.871094 52.8037 0.919922 63.5459 0.919922C74.2881 0.919922 83.6387 0.871094 91.5977 0.773438C99.6055 0.675781 106.295 0.529297 111.666 0.333984C111.959 2.43359 112.325 4.45996 112.765 6.41309C113.204 8.31738 113.937 10.4414 114.962 12.7852L117.159 17.7656L122.506 28.166C122.164 28.9473 121.31 29.6064 119.942 30.1436C118.282 27.0674 116.256 24.1377 113.863 21.3545C111.471 18.5713 108.419 16.0566 104.708 13.8105C101.046 11.5645 96.5537 9.68457 91.2314 8.1709C85.958 6.65723 79.5859 5.63184 72.1152 5.09473C71.8711 11.1982 71.6758 18.1074 71.5293 25.8223C71.4316 33.4883 71.3828 42.0332 71.3828 51.457C71.3828 60.9297 71.4316 69.5234 71.5293 77.2383C71.6758 84.9531 71.8711 91.8623 72.1152 97.9658C72.1641 99.1377 72.6279 100.139 73.5068 100.969C74.3857 101.75 75.582 102.409 77.0957 102.946C78.6582 103.483 80.4404 103.923 82.4424 104.265C84.4932 104.558 86.6904 104.802 89.0342 104.997C89.2295 105.827 89.3271 106.486 89.3271 106.975C89.3271 107.414 89.2295 107.902 89.0342 108.439C80.8311 108.146 72.335 108 63.5459 108C54.8057 108 46.3096 108.146 38.0576 108.439C37.8623 107.902 37.7646 107.414 37.7646 106.975C37.7646 106.486 37.8623 105.827 38.0576 104.997L41.5732 104.631C42.8428 104.484 44.2588 104.289 45.8213 104.045C47.3838 103.752 48.8242 103.361 50.1426 102.873C51.5098 102.385 52.6572 101.774 53.585 101.042C54.5127 100.31 54.9766 99.4062 54.9766 98.332V97.9658C55.2207 89.0303 55.416 80.7051 55.5625 72.9902C55.709 65.2754 55.7822 58.0977 55.7822 51.457C55.7822 44.8652 55.709 37.7363 55.5625 30.0703C55.416 22.3555 55.2207 14.0303 54.9766 5.09473C47.9453 5.48535 41.8174 6.4375 36.5928 7.95117C31.417 9.41602 26.9248 11.2715 23.1162 13.5176C19.3076 15.7148 16.1338 18.2539 13.5947 21.1348C11.0557 23.9668 8.95605 26.9697 7.2959 30.1436C5.92871 29.6064 5.07422 28.9473 4.73242 28.166L8.02832 21.9404L9.56641 18.791C10.2012 17.4727 10.8359 16.1299 11.4707 14.7627C12.1055 13.3955 12.6914 11.9795 13.2285 10.5146C13.8145 9.00098 14.3027 7.41406 14.6934 5.75391C15.084 4.04492 15.377 2.23828 15.5723 0.333984ZM128.951 0.333984C139.889 0.724609 148.385 0.919922 154.439 0.919922C160.494 0.919922 168.99 0.724609 179.928 0.333984C180.123 1.11523 180.221 1.65234 180.221 1.94531C180.221 2.28711 180.123 2.89746 179.928 3.77637C177.682 3.97168 175.851 4.19141 174.435 4.43555C173.067 4.63086 171.358 4.97266 169.308 5.46094C167.306 5.94922 165.768 6.65723 164.693 7.58496C163.619 8.46387 163.058 9.53809 163.009 10.8076C162.374 25.4072 162.057 39.0059 162.057 51.6035C167.477 51.7988 175.68 51.8965 186.666 51.8965C195.65 51.8965 204.659 51.75 213.692 51.457C213.497 33.293 213.253 19.7432 212.96 10.8076C212.911 9.53809 212.35 8.46387 211.275 7.58496C210.201 6.65723 208.639 5.94922 206.588 5.46094C204.537 4.97266 202.804 4.63086 201.388 4.43555C200.021 4.19141 198.214 3.97168 195.968 3.77637C195.772 2.89746 195.675 2.28711 195.675 1.94531C195.675 1.65234 195.772 1.11523 195.968 0.333984C207.003 0.724609 215.499 0.919922 221.456 0.919922C227.462 0.919922 235.982 0.724609 247.018 0.333984C247.213 1.11523 247.311 1.65234 247.311 1.94531C247.311 2.28711 247.213 2.89746 247.018 3.77637C244.771 3.97168 242.94 4.19141 241.524 4.43555C240.157 4.63086 238.448 4.97266 236.397 5.46094C234.347 5.94922 232.784 6.65723 231.71 7.58496C230.636 8.46387 230.074 9.53809 230.025 10.8076C229.537 22.9658 229.293 37.5166 229.293 54.46C229.293 71.3057 229.537 85.8076 230.025 97.9658C230.074 99.2354 230.636 100.334 231.71 101.262C232.784 102.141 234.347 102.824 236.397 103.312C238.448 103.801 240.157 104.167 241.524 104.411C242.94 104.606 244.771 104.802 247.018 104.997C247.213 105.778 247.311 106.438 247.311 106.975C247.311 107.365 247.213 107.854 247.018 108.439C238.717 108.146 230.196 108 221.456 108C212.716 108 204.22 108.146 195.968 108.439C195.772 107.854 195.675 107.365 195.675 106.975C195.675 106.145 195.772 105.485 195.968 104.997C198.214 104.802 200.045 104.606 201.461 104.411C202.877 104.167 204.61 103.801 206.661 103.312C208.712 102.824 210.274 102.141 211.349 101.262C212.423 100.334 212.96 99.2354 212.96 97.9658C213.351 80.5342 213.595 67.3262 213.692 58.3418C204.659 58.0488 195.65 57.9023 186.666 57.9023C181.1 57.9023 172.896 58 162.057 58.1953C162.057 68.5957 162.325 81.8525 162.862 97.9658C162.911 99.2354 163.473 100.334 164.547 101.262C165.621 102.141 167.159 102.824 169.161 103.312C171.212 103.801 172.921 104.167 174.288 104.411C175.704 104.606 177.535 104.802 179.781 104.997C179.977 105.974 180.074 106.633 180.074 106.975C180.074 107.365 179.977 107.854 179.781 108.439C171.48 108.146 162.984 108 154.293 108C145.504 108 137.008 108.146 128.805 108.439C128.609 107.854 128.512 107.365 128.512 106.975C128.512 106.145 128.609 105.485 128.805 104.997C131.051 104.802 132.857 104.606 134.225 104.411C135.641 104.167 137.35 103.801 139.352 103.312C141.402 102.824 142.965 102.141 144.039 101.262C145.113 100.334 145.675 99.2354 145.724 97.9658C146.31 82.6826 146.603 67.2773 146.603 51.75C146.603 35.9297 146.358 22.2822 145.87 10.8076C145.821 9.53809 145.26 8.46387 144.186 7.58496C143.111 6.65723 141.549 5.94922 139.498 5.46094C137.496 4.97266 135.787 4.63086 134.371 4.43555C133.004 4.19141 131.197 3.97168 128.951 3.77637C128.756 2.89746 128.658 2.28711 128.658 1.94531C128.658 1.45703 128.756 0.919922 128.951 0.333984Z" fill="#16C953"/>
</g>
<defs>
<filter id="filter0_di_1031_9" x="0.732422" y="0.333984" width="250.578" height="116.105" filterUnits="userSpaceOnUse" color-interpolation-filters="sRGB">
<feFlood flood-opacity="0" result="BackgroundImageFix"/>
<feColorMatrix in="SourceAlpha" type="matrix" values="0 0 0 0 0 0 0 0 0 0 0 0 0 0 0 0 0 0 127 0" result="hardAlpha"/>
<feOffset dy="4"/>
<feGaussianBlur stdDeviation="2"/>
<feComposite in2="hardAlpha" operator="out"/>
<feColorMatrix type="matrix" values="0 0 0 0 0 0 0 0 0 0 0 0 0 0 0 0 0 0 0.25 0"/>
<feBlend mode="normal" in2="BackgroundImageFix" result="effect1_dropShadow_1031_9"/>
<feBlend mode="normal" in="SourceGraphic" in2="effect1_dropShadow_1031_9" result="shape"/>
<feColorMatrix in="SourceAlpha" type="matrix" values="0 0 0 0 0 0 0 0 0 0 0 0 0 0 0 0 0 0 127 0" result="hardAlpha"/>
<feOffset dy="4"/>
<feGaussianBlur stdDeviation="2"/>
<feComposite in2="hardAlpha" operator="arithmetic" k2="-1" k3="1"/>
<feColorMatrix type="matrix" values="0 0 0 0 0 0 0 0 0 0 0 0 0 0 0 0 0 0 0.25 0"/>
<feBlend mode="normal" in2="shape" result="effect2_innerShadow_1031_9"/>
</filter>
</defs>
</svg>
